<?xml version="1.0" encoding="utf-8"?>
<!-- Generator: Adobe Illustrator 22.0.1, SVG Export Plug-In . SVG Version: 6.00 Build 0)  -->
<svg version="1.1" xmlns="http://www.w3.org/2000/svg" xmlns:xlink="http://www.w3.org/1999/xlink" x="0px" y="0px"
	 viewBox="0 0 72 72" style="enable-background:new 0 0 72 72;" xml:space="preserve">
<style type="text/css">
	.st0{fill:#3C6DF0;}
	.st1{fill:#B0BEF3;}
	.st2{fill:#E7E9F7;}
	.st3{fill:#FFFFFF;}
	.st4{fill:none;stroke:#3C6DF0;stroke-width:1.0159;stroke-linecap:round;stroke-linejoin:round;stroke-miterlimit:10;}
</style>
<g id="Mockup">
</g>
<g id="Mobile">
	<g>
		<path class="st0" d="M58.5,72h-45c-3.1,0-5.6-2.5-5.6-5.6V5.6c0-3.1,2.5-5.6,5.6-5.6h38.1c0.4,0,0.7,0.2,1,0.4l11.2,12.8
			c0.2,0.2,0.3,0.5,0.3,0.9v52.3C64.1,69.5,61.6,72,58.5,72z M13.5,2.6c-1.7,0-3,1.4-3,3v60.8c0,1.7,1.4,3,3,3h45c1.7,0,3-1.4,3-3
			V14.6l-10.5-12H13.5z"/>
		<path class="st1" d="M51.5,59.9h-32c-1.2,0-2.1-0.9-2.1-2.1V25.1c0-1.2,0.9-2.1,2.1-2.1h32c1.2,0,2.1,0.9,2.1,2.1v32.7
			C53.6,59,52.7,59.9,51.5,59.9z"/>
		<g>
			<path class="st0" d="M35.6,40.8c-5.1,0-10.5-1.2-10.5-3.9c0-2.7,5.5-3.9,10.5-3.9s10.5,1.2,10.5,3.9
				C46.1,39.5,40.6,40.8,35.6,40.8z M35.6,34.8c-5.7,0-8.6,1.5-8.6,2c0,0.5,3,2,8.6,2s8.6-1.5,8.6-2C44.2,36.3,41.2,34.8,35.6,34.8z
				"/>
			<g>
				<path class="st3" d="M44.2,44.2c2.5,1,4,2.4,4,4c0,3-5.6,5.4-12.6,5.4S23,51.2,23,48.2c0-1.5,1.5-2.9,3.9-3.9"/>
				<path class="st0" d="M35.6,54.6c-7.7,0-13.6-2.7-13.6-6.4c0-1.9,1.6-3.6,4.5-4.8c0.5-0.2,1,0,1.2,0.5c0.2,0.5,0,1-0.5,1.2
					c-2.1,0.9-3.3,2-3.3,3c0,2.1,4.8,4.5,11.7,4.5s11.7-2.4,11.7-4.5c0-1.1-1.3-2.2-3.4-3.1c-0.5-0.2-0.7-0.8-0.5-1.2
					c0.2-0.5,0.8-0.7,1.2-0.5c3,1.2,4.6,2.9,4.6,4.9C49.1,51.8,43.3,54.6,35.6,54.6z"/>
			</g>
			<g>
				<path class="st3" d="M26,37.3c0,0,1.2,7,1.2,7c0.7,4.1,4.9,5.4,8.5,5.4c3.8,0,7.7-1.5,8.3-5.7l1.1-6.9"/>
				<path class="st0" d="M35.6,50.6c-4,0-8.5-1.6-9.3-6.2l-1.2-7c-0.1-0.5,0.3-1,0.8-1.1c0.5-0.1,1,0.3,1.1,0.8l1.2,7
					c0.8,4.3,6,4.6,7.6,4.6c2,0,6.7-0.6,7.4-4.9l1.1-6.9c0.1-0.5,0.6-0.9,1.1-0.8c0.5,0.1,0.9,0.6,0.8,1.1L45,44.1
					c-0.6,4-4.1,6.4-9.3,6.5C35.7,50.6,35.6,50.6,35.6,50.6z"/>
			</g>
			<path class="st0" d="M44.4,44.9c-0.3,0-0.6-0.2-0.8-0.5c-0.3-0.4-0.1-1,0.3-1.3l2.9-1.8v-1.9l-1.6-0.1c-0.5,0-1-0.4-1-1
				c0-0.5,0.4-1,1-1h1.5c1.1,0,2,0.9,2,2v1.9c0,0.9-0.5,1.6-1.3,1.9l-2.4,1.5C44.7,44.9,44.5,44.9,44.4,44.9z"/>
			<g>
				<ellipse class="st3" cx="35.6" cy="36.8" rx="9.6" ry="3"/>
				<path class="st0" d="M35.6,40.8c-5.1,0-10.5-1.2-10.5-3.9c0-2.7,5.5-3.9,10.5-3.9s10.5,1.2,10.5,3.9
					C46.1,39.5,40.6,40.8,35.6,40.8z M35.6,34.8c-5.7,0-8.6,1.5-8.6,2c0,0.5,3,2,8.6,2s8.6-1.5,8.6-2C44.2,36.3,41.2,34.8,35.6,34.8
					z"/>
			</g>
		</g>
		<path class="st0" d="M51.4,1v10.7c0,1.2,1,2.2,2.2,2.2h10.1L51.4,1z"/>
		<path class="st2" d="M37.3,17.6H19.8c-0.9,0-1.6-0.7-1.6-1.6v-3.9c0-0.9,0.7-1.6,1.6-1.6h17.6c0.9,0,1.6,0.7,1.6,1.6v3.9
			C38.9,16.9,38.2,17.6,37.3,17.6z"/>
		<g>
			<path class="st0" d="M32.3,36.6c-0.5,0-1-0.4-1-1v-5.7c0-0.5,0.4-1,1-1c0.5,0,1,0.4,1,1v5.7C33.3,36.2,32.8,36.6,32.3,36.6z"/>
		</g>
		<g>
			<path class="st0" d="M40.4,36.6c-0.5,0-1-0.4-1-1v-5.7c0-0.5,0.4-1,1-1c0.5,0,1,0.4,1,1v5.7C41.4,36.2,40.9,36.6,40.4,36.6z"/>
		</g>
		<g>
			<path class="st0" d="M36.2,37.7c-0.5,0-1-0.4-1-1v-8.7c0-0.5,0.4-1,1-1s1,0.4,1,1v8.7C37.2,37.3,36.8,37.7,36.2,37.7z"/>
		</g>
	</g>
</g>
</svg>
