<?xml version="1.0" encoding="UTF-8"?>
<svg width="300px" height="300px" viewBox="0 0 300 300" version="1.1" xmlns="http://www.w3.org/2000/svg" xmlns:xlink="http://www.w3.org/1999/xlink">
    <!-- Generator: Sketch 60 (88103) - https://sketch.com -->
    <title>300x300 - MCM Copy</title>
    <desc>Created with Sketch.</desc>
    <g id="300x300---MCM-Copy" stroke="none" stroke-width="1" fill="none" fill-rule="evenodd">
        <g id="Group-6" transform="translate(106.000000, 49.000000)" fill="#0062FF">
            <g id="Group-3" transform="translate(0.000000, 0.340650)">
                <path d="M3.34894815,76.1306 L44.5459852,98.2501 L85.739763,76.1306 L85.739763,25.5281 L44.5459852,3.4086 L3.34894815,25.5281 L3.34894815,76.1306 Z M44.5459852,100.74935 C44.3536889,100.74935 44.1613926,100.70385 43.9886519,100.6096 L1.61828148,77.8596 C1.24020741,77.65485 0.999022222,77.2616 0.999022222,76.82935 L0.999022222,24.82935 C0.999022222,24.3971 1.24020741,24.00385 1.61828148,23.79585 L43.9886519,1.04585 C44.3373926,0.86385 44.7513185,0.86385 45.1033185,1.04585 L87.4736889,23.79585 C87.851763,24.00385 88.0896889,24.3971 88.0896889,24.82935 L88.0896889,76.82935 C88.0896889,77.2616 87.851763,77.65485 87.4736889,77.8596 L45.1033185,100.6096 C44.9273185,100.70385 44.7350222,100.74935 44.5459852,100.74935 L44.5459852,100.74935 Z" id="Fill-1"></path>
            </g>
            <path d="M67.3598222,66.248375 C66.2093037,66.248375 65.2738963,65.315625 65.2738963,64.168375 C65.2738963,63.024375 66.2093037,62.091625 67.3598222,62.091625 C68.5103407,62.091625 69.4457481,63.024375 69.4457481,64.168375 C69.4457481,65.315625 68.5103407,66.248375 67.3598222,66.248375 L67.3598222,66.248375 Z M44.5450074,79.248375 C43.3944889,79.248375 42.4590815,78.315625 42.4590815,77.168375 C42.4590815,76.024375 43.3944889,75.091625 44.5450074,75.091625 C45.6955259,75.091625 46.6309333,76.024375 46.6309333,77.168375 C46.6309333,78.315625 45.6955259,79.248375 44.5450074,79.248375 L44.5450074,79.248375 Z M21.7301926,66.248375 C20.5796741,66.248375 19.6442667,65.315625 19.6442667,64.168375 C19.6442667,63.024375 20.5796741,62.091625 21.7301926,62.091625 C22.8807111,62.091625 23.8161185,63.024375 23.8161185,64.168375 C23.8161185,65.315625 22.8807111,66.248375 21.7301926,66.248375 L21.7301926,66.248375 Z M19.6442667,38.168375 C19.6442667,37.024375 20.5796741,36.091625 21.7301926,36.091625 C22.8807111,36.091625 23.8161185,37.024375 23.8161185,38.168375 C23.8161185,39.315625 22.8807111,40.248375 21.7301926,40.248375 C20.5796741,40.248375 19.6442667,39.315625 19.6442667,38.168375 L19.6442667,38.168375 Z M44.5450074,23.091625 C45.6955259,23.091625 46.6309333,24.024375 46.6309333,25.168375 C46.6309333,26.315625 45.6955259,27.248375 44.5450074,27.248375 C43.3944889,27.248375 42.4590815,26.315625 42.4590815,25.168375 C42.4590815,24.024375 43.3944889,23.091625 44.5450074,23.091625 L44.5450074,23.091625 Z M67.3598222,36.091625 C68.5103407,36.091625 69.4457481,37.024375 69.4457481,38.168375 C69.4457481,39.315625 68.5103407,40.248375 67.3598222,40.248375 C66.2093037,40.248375 65.2738963,39.315625 65.2738963,38.168375 C65.2738963,37.024375 66.2093037,36.091625 67.3598222,36.091625 L67.3598222,36.091625 Z M50.3041185,53.102125 C50.5094519,52.494375 50.6496,51.847625 50.6496,51.168375 C50.6496,50.489125 50.5094519,49.845625 50.3041185,49.237875 L64.2341926,41.298125 C64.7654519,41.827875 65.4401185,42.208125 66.1864889,42.412875 L66.1864889,59.927125 C65.4401185,60.131875 64.7687111,60.508875 64.2341926,61.035375 L50.3041185,53.102125 Z M45.7183407,57.102875 C47.0741926,56.842875 48.2573037,56.127875 49.1307852,55.126875 L63.0804148,63.073125 C62.9891556,63.427375 62.9272296,63.788125 62.9272296,64.168375 C62.9272296,64.548625 62.9891556,64.909375 63.0804148,65.260375 L47.6673778,74.035375 C47.1361185,73.508875 46.4647111,73.131875 45.7183407,72.927125 L45.7183407,57.102875 Z M26.0096,63.076375 L40.0113778,55.094375 C40.8718222,56.092125 42.0321185,56.823375 43.3716741,57.093125 L43.3716741,72.927125 C42.6253037,73.131875 41.9538963,73.508875 41.4193778,74.035375 L26.0096,65.260375 C26.1008593,64.909375 26.1627852,64.548625 26.1627852,64.168375 C26.1627852,63.791375 26.1008593,63.430625 26.0096,63.076375 L26.0096,63.076375 Z M43.3716741,45.243625 C42.0321185,45.513375 40.8718222,46.244625 40.0113778,47.235875 L26.0096,39.257125 C26.1008593,38.909375 26.1627852,38.548625 26.1627852,38.168375 C26.1627852,37.791375 26.1008593,37.430625 26.0096,37.076375 L41.4161185,28.298125 C41.950637,28.827875 42.6253037,29.208125 43.3716741,29.412875 L43.3716741,45.243625 Z M44.5873778,54.873375 C42.5373037,54.873375 40.868563,53.212625 40.868563,51.168375 C40.868563,49.124125 42.5373037,47.463375 44.5873778,47.463375 C46.6374519,47.463375 48.2996741,49.124125 48.2996741,51.168375 C48.2996741,53.212625 46.6374519,54.873375 44.5873778,54.873375 L44.5873778,54.873375 Z M63.0804148,39.260375 L49.1307852,47.209875 C48.2573037,46.208875 47.0741926,45.490625 45.7183407,45.233875 L45.7183407,29.412875 C46.4647111,29.208125 47.142637,28.827875 47.6738963,28.298125 L63.0804148,37.076375 C62.9891556,37.430625 62.9272296,37.791375 62.9272296,38.168375 C62.9272296,38.548625 62.9891556,38.909375 63.0804148,39.260375 L63.0804148,39.260375 Z M24.8590815,41.294875 L38.8543407,49.273625 C38.6522667,49.874875 38.518637,50.502125 38.518637,51.168375 C38.518637,51.831375 38.6522667,52.465125 38.8543407,53.059875 L24.8590815,61.038625 C24.324563,60.508875 23.6498963,60.131875 22.9035259,59.927125 L22.9035259,42.412875 C23.6531556,42.208125 24.3278222,41.827875 24.8590815,41.294875 L24.8590815,41.294875 Z M68.5331556,59.927125 L68.5331556,42.412875 C70.4072296,41.896125 71.7924148,40.196375 71.7924148,38.168375 C71.7924148,35.730875 69.8042667,33.748375 67.3598222,33.748375 C66.1408593,33.748375 65.0359704,34.242375 64.2341926,35.038625 L48.8244148,26.257125 C48.9156741,25.909375 48.9776,25.548625 48.9776,25.168375 C48.9776,22.730875 46.9894519,20.748375 44.5450074,20.748375 C42.100563,20.748375 40.1124148,22.730875 40.1124148,25.168375 C40.1124148,25.548625 40.1743407,25.909375 40.2656,26.260375 L24.8558222,35.038625 C24.0540444,34.242375 22.9491556,33.748375 21.7301926,33.748375 C19.2857481,33.748375 17.2976,35.730875 17.2976,38.168375 C17.2976,40.196375 18.6827852,41.896125 20.5568593,42.412875 L20.5568593,59.927125 C18.6827852,60.443875 17.2976,62.140375 17.2976,64.168375 C17.2976,66.605875 19.2857481,68.591625 21.7301926,68.591625 C22.9491556,68.591625 24.0573037,68.094375 24.8590815,67.298125 L40.2656,76.073125 C40.1743407,76.427375 40.1124148,76.788125 40.1124148,77.168375 C40.1124148,79.605875 42.100563,81.591625 44.5450074,81.591625 C46.9894519,81.591625 48.9776,79.605875 48.9776,77.168375 C48.9776,76.788125 48.9156741,76.424125 48.8244148,76.069875 L64.2309333,67.298125 C65.0327111,68.094375 66.1408593,68.591625 67.3598222,68.591625 C69.8042667,68.591625 71.7924148,66.605875 71.7924148,64.168375 C71.7924148,62.140375 70.4072296,60.443875 68.5331556,59.927125 L68.5331556,59.927125 Z" id="Fill-4"></path>
        </g>
    </g>
</svg>