<svg id="Layer_1" data-name="Layer 1" xmlns="http://www.w3.org/2000/svg" viewBox="0 0 80 80"><defs><style>.cls-1{fill:#eceef9;}.cls-2{fill:#4b85f3;}</style></defs><title>New_SK_Icon_sizes</title><path class="cls-1" d="M40,0A40,40,0,1,0,80,40,40,40,0,0,0,40,0Z"/><path class="cls-2" d="M61,52.37h-.16a7.08,7.08,0,0,1-3.26,4.16,12.3,12.3,0,0,1-6.72,1.66,14.79,14.79,0,0,1-6-1.21,12.72,12.72,0,0,1-4.71-3.55A17.09,17.09,0,0,1,37,47.61a26.26,26.26,0,0,1-1.11-8A26.73,26.73,0,0,1,37,31.66a16.15,16.15,0,0,1,3.09-5.82,13.39,13.39,0,0,1,4.84-3.58A15.6,15.6,0,0,1,51.22,21a14.42,14.42,0,0,1,8.08,2.13,14.25,14.25,0,0,1,5,5.69L60.74,31a10.12,10.12,0,0,0-3.68-4.53,10.27,10.27,0,0,0-5.84-1.64,10.72,10.72,0,0,0-4.33.85,10,10,0,0,0-3.37,2.4,10.73,10.73,0,0,0-2.18,3.72,14.26,14.26,0,0,0-.78,4.85V42.5a14.48,14.48,0,0,0,.78,4.88,10.77,10.77,0,0,0,2.18,3.75A9.68,9.68,0,0,0,47,53.53a11.94,11.94,0,0,0,4.63.85,12.27,12.27,0,0,0,3.52-.49,8.83,8.83,0,0,0,2.94-1.47,7,7,0,0,0,2-2.46,7.85,7.85,0,0,0,.72-3.49V42.9H52.87V39.09H65V57.57H61Z"/><rect class="cls-2" x="19.84" y="32.86" width="14.21" height="3.66" rx="0.55"/><rect class="cls-2" x="19.84" y="45.87" width="14.21" height="3.66" rx="0.55"/><rect class="cls-2" x="8.94" y="39.41" width="21.42" height="3.66" rx="0.55"/></svg>